<?xml version="1.0" standalone="no"?>
<!DOCTYPE svg PUBLIC "-//W3C//DTD SVG 20010904//EN"
 "http://www.w3.org/TR/2001/REC-SVG-20010904/DTD/svg10.dtd">
<svg version="1.0" xmlns="http://www.w3.org/2000/svg"
 width="512.000000pt" height="512.000000pt" viewBox="0 0 512.000000 512.000000"
 preserveAspectRatio="xMidYMid meet">

<g transform="translate(0.000000,512.000000) scale(0.100000,-0.100000)"
fill="#000000" stroke="none">
<path d="M3860 3441 c0 -723 -1 -763 -17 -756 -10 4 -74 29 -143 55 -69 26
-183 71 -255 99 -71 27 -130 49 -132 48 -2 -3 53 -147 226 -592 54 -137 101
-259 105 -270 6 -16 18 5 55 91 27 61 52 117 56 124 5 8 22 -3 56 -36 l49 -48
0 -623 0 -623 -1295 0 c-712 0 -1295 -3 -1295 -8 0 -4 193 -200 428 -435 l429
-428 104 -16 c132 -20 496 -22 629 -4 335 45 610 131 880 272 636 334 1100
910 1290 1604 84 309 109 679 66 993 l-12 93 -612 612 -612 612 0 -764z"/>
<path d="M3285 3821 c-107 -26 -169 -107 -169 -221 0 -122 70 -205 192 -225
95 -16 203 42 243 129 23 50 24 134 4 184 -43 103 -159 160 -270 133z m125
-96 c85 -44 82 -214 -5 -253 -42 -19 -109 -15 -139 9 -104 82 -56 259 71 259
24 0 57 -7 73 -15z"/>
<path d="M1570 3600 l0 -220 135 0 135 0 0 40 0 40 -90 0 -90 0 0 180 0 180
-45 0 -45 0 0 -220z"/>
<path d="M2010 3809 c-85 -34 -133 -110 -134 -209 0 -81 29 -140 92 -184 76
-53 212 -48 283 11 49 42 73 99 73 173 0 99 -44 170 -126 205 -42 17 -149 19
-188 4z m167 -85 c55 -35 74 -141 37 -205 -38 -66 -125 -85 -190 -42 -74 48
-75 197 -2 245 46 30 110 31 155 2z"/>
<path d="M2360 3780 l0 -40 60 0 60 0 0 -180 0 -180 50 0 50 0 0 180 0 180 60
0 60 0 0 40 0 40 -170 0 -170 0 0 -40z"/>
<path d="M2740 3780 l0 -40 65 0 65 0 0 -180 0 -180 45 0 45 0 0 180 0 180 65
0 65 0 0 40 0 40 -175 0 -175 0 0 -40z"/>
<path d="M1590 2815 l0 -95 100 0 100 0 0 95 0 95 -100 0 -100 0 0 -95z"/>
<path d="M2160 2160 l0 -100 100 0 100 0 0 100 0 100 -100 0 -100 0 0 -100z"/>
<path d="M1590 2150 l0 -101 98 3 97 3 3 98 3 97 -101 0 -100 0 0 -100z"/>
<path d="M2747 1603 c-4 -3 -7 -48 -7 -100 l0 -93 100 0 100 0 0 100 0 100
-93 0 c-52 0 -97 -3 -100 -7z"/>
<path d="M3330 1510 l0 -100 100 0 100 0 0 100 0 100 -100 0 -100 0 0 -100z"/>
</g>
</svg>
